<svg width="631" height="462" viewBox="0 0 631 462" fill="none" xmlns="http://www.w3.org/2000/svg">
<path d="M50.135 361.169C-35.0269 261.686 4.4593 128.564 50.135 83.9621C114.113 21.4881 201.838 46.0905 317.798 83.9621C433.758 121.834 515.382 -115.713 602.799 75.1137C713.76 317.338 469.391 448.731 352.431 458.596C242.505 467.867 138.942 464.91 50.135 361.169Z" fill="#FFECD6"/>
<path d="M63.5925 352.99C-17.2505 263.197 20.2332 143.042 63.5925 102.784C124.326 46.3951 207.602 68.6012 317.682 102.784C427.761 136.967 505.245 -77.4426 588.229 94.7974C693.563 313.429 461.587 432.024 350.558 440.927C246.207 449.295 147.896 446.627 63.5925 352.99Z" stroke="#FF9B24" stroke-width="2" stroke-dasharray="4 4"/>
</svg>
