<svg width="188" height="51" viewBox="0 0 188 51" fill="none" xmlns="http://www.w3.org/2000/svg">
<path d="M87.246 15.0575L91.1651 18.2988C91.6562 18.7113 91.9607 19.0256 92.0785 19.2417C92.216 19.4578 92.2848 19.6641 92.2848 19.8605C92.2848 20.332 91.9803 20.9704 91.3713 21.7759C90.7034 22.6009 90.1141 23.0135 89.6033 23.0135C89.1712 23.0135 88.572 22.7286 87.8059 22.1589L87.5112 21.9527C87.0594 21.5794 86.362 20.9312 85.4191 20.0079C84.4761 19.0649 83.7591 18.397 83.268 18.0041V20.2731C83.268 20.7249 83.2484 21.0687 83.2091 21.3044C83.1894 21.5205 83.101 21.7759 82.9439 22.0705C82.6885 22.5813 81.9322 22.8367 80.6749 22.8367C79.4373 22.8367 78.681 22.5715 78.406 22.0411C78.2685 21.7464 78.1801 21.491 78.1408 21.2749C78.1212 21.0392 78.1113 20.6954 78.1113 20.2436V2.59307C78.1113 2.14124 78.1212 1.80729 78.1408 1.5912C78.1801 1.35547 78.2685 1.09027 78.406 0.7956C78.681 0.2652 79.4472 0 80.7044 0C81.6473 0 82.3152 0.166978 82.7081 0.500934C83.0421 0.775956 83.2189 1.20813 83.2385 1.79747C83.2582 1.97427 83.268 2.24929 83.268 2.62253V11.9635C83.6216 11.6688 84.152 11.1679 84.8592 10.4607C85.586 9.75347 86.1263 9.25253 86.4799 8.95787L86.8335 8.72213C87.521 8.19173 88.1104 7.92653 88.6015 7.92653C89.0926 7.92653 89.6524 8.32924 90.2811 9.13467C90.9293 9.92044 91.2535 10.5392 91.2535 10.9911C91.2535 11.4429 90.89 11.9733 90.1632 12.5823L87.246 15.0575Z" fill="white"/>
<path d="M93.9094 9.9008C93.9094 9.44898 93.9192 9.11502 93.9388 8.89893C93.9781 8.6632 94.0665 8.398 94.204 8.10333C94.4791 7.59258 95.2452 7.3372 96.5024 7.3372C97.4454 7.3372 98.1133 7.50418 98.5062 7.83813C98.8401 8.11316 99.0169 8.53551 99.0366 9.1052C99.0562 9.30164 99.066 9.58649 99.066 9.95973V20.2731C99.066 20.7249 99.0464 21.0687 99.0071 21.3044C98.9875 21.5205 98.8991 21.7759 98.7419 22.0705C98.4865 22.5813 97.7302 22.8367 96.473 22.8367C95.2354 22.8367 94.4791 22.5715 94.204 22.0411C94.0665 21.7464 93.9781 21.491 93.9388 21.2749C93.9192 21.0588 93.9094 20.7151 93.9094 20.2436V9.9008ZM98.7419 4.44947C98.6044 4.72449 98.349 4.92093 97.9758 5.0388C97.6025 5.15667 97.1016 5.2156 96.473 5.2156C95.864 5.2156 95.3729 5.15667 94.9996 5.0388C94.6264 4.92093 94.3612 4.71467 94.204 4.42C94.0665 4.12533 93.9781 3.86996 93.9388 3.65387C93.9192 3.41813 93.9094 3.07436 93.9094 2.62253C93.9094 2.17071 93.9192 1.83676 93.9388 1.62067C93.9781 1.38493 94.0665 1.12956 94.204 0.854533C94.4791 0.324133 95.2452 0.0589326 96.5024 0.0589326C97.74 0.0589326 98.4865 0.324133 98.7419 0.854533C98.8991 1.1492 98.9875 1.4144 99.0071 1.65013C99.0464 1.86622 99.066 2.20018 99.066 2.652C99.066 3.10382 99.0464 3.4476 99.0071 3.68333C98.9875 3.89942 98.8991 4.1548 98.7419 4.44947Z" fill="white"/>
<path d="M110.054 7.30773C112.018 7.30773 113.649 8.06404 114.945 9.57667C116.261 11.0696 116.919 12.8966 116.919 15.0575V20.2436C116.919 20.6954 116.9 21.0392 116.86 21.2749C116.841 21.491 116.762 21.7366 116.625 22.0116C116.35 22.542 115.584 22.8072 114.326 22.8072C112.932 22.8072 112.126 22.4438 111.91 21.7169C111.792 21.383 111.733 20.882 111.733 20.2141V15.028C111.733 14.2226 111.498 13.594 111.026 13.1421C110.574 12.6903 109.955 12.4644 109.17 12.4644C108.404 12.4644 107.775 12.7001 107.284 13.1716C106.812 13.6431 106.577 14.2619 106.577 15.028V20.2436C106.577 20.6954 106.557 21.0392 106.518 21.2749C106.498 21.491 106.41 21.7366 106.252 22.0116C105.997 22.542 105.241 22.8072 103.984 22.8072C102.746 22.8072 101.99 22.542 101.715 22.0116C101.577 21.7169 101.489 21.4616 101.449 21.2455C101.43 21.0097 101.42 20.666 101.42 20.2141V9.78293C101.42 9.35075 101.43 9.02662 101.449 8.81053C101.489 8.5748 101.587 8.31942 101.744 8.0444C102.019 7.55329 102.775 7.30773 104.013 7.30773C105.211 7.30773 105.948 7.53365 106.223 7.98547C106.419 8.31942 106.518 8.72213 106.518 9.1936C106.596 9.05609 106.773 8.85964 107.048 8.60427C107.323 8.34889 107.588 8.14262 107.844 7.98547C108.512 7.53365 109.248 7.30773 110.054 7.30773Z" fill="white"/>
<path d="M129.692 0.854533C129.849 0.559866 130.114 0.3536 130.487 0.235734C130.86 0.117866 131.352 0.0589326 131.961 0.0589326C132.589 0.0589326 133.09 0.117866 133.463 0.235734C133.837 0.3536 134.092 0.559866 134.229 0.854533C134.387 1.1492 134.475 1.4144 134.495 1.65013C134.534 1.86622 134.554 2.20018 134.554 2.652V20.2436C134.554 20.6954 134.534 21.0392 134.495 21.2749C134.475 21.491 134.387 21.7366 134.229 22.0116C133.935 22.542 133.1 22.8072 131.725 22.8072C130.369 22.8072 129.613 22.3259 129.456 21.3633C128.631 22.3063 127.482 22.7777 126.008 22.7777C124.24 22.7777 122.629 22.0116 121.176 20.4793C119.722 18.9274 118.995 17.13 118.995 15.0869C118.995 13.0243 119.722 11.217 121.176 9.66507C122.649 8.11316 124.26 7.3372 126.008 7.3372C127.462 7.3372 128.591 7.82831 129.397 8.81053V2.62253C129.397 2.17071 129.407 1.83676 129.426 1.62067C129.466 1.38493 129.554 1.12956 129.692 0.854533ZM124.918 16.8549C125.429 17.3853 126.048 17.6505 126.774 17.6505C127.501 17.6505 128.1 17.3853 128.572 16.8549C129.063 16.3245 129.309 15.745 129.309 15.1164C129.309 14.4681 129.073 13.869 128.601 13.3189C128.149 12.7689 127.531 12.4939 126.745 12.4939C125.959 12.4939 125.331 12.7689 124.859 13.3189C124.388 13.8493 124.152 14.4387 124.152 15.0869C124.152 15.7352 124.407 16.3245 124.918 16.8549Z" fill="white"/>
<path d="M151.87 13.2305C151.87 14.4288 151.565 15.3227 150.956 15.912C150.367 16.4817 149.709 16.7665 148.982 16.7665H141.999C141.999 17.3166 142.323 17.7782 142.971 18.1515C143.619 18.5247 144.267 18.7113 144.916 18.7113C146.055 18.7113 146.949 18.5935 147.597 18.3577L147.921 18.2399C148.393 18.0238 148.786 17.9157 149.1 17.9157C149.729 17.9157 150.269 18.3577 150.721 19.2417C150.976 19.7721 151.104 20.224 151.104 20.5972C151.104 22.3456 149.012 23.2197 144.827 23.2197C143.374 23.2197 142.077 22.9742 140.938 22.4831C139.818 21.9723 138.944 21.3044 138.315 20.4793C137.078 18.8881 136.459 17.1103 136.459 15.1459C136.459 12.6707 137.254 10.6964 138.846 9.22307C140.456 7.73009 142.46 6.9836 144.857 6.9836C147.587 6.9836 149.591 7.94618 150.868 9.87133C151.536 10.8928 151.87 12.0126 151.87 13.2305ZM145.652 14.0851C146.399 14.0851 146.772 13.7708 146.772 13.1421C146.772 12.6903 146.595 12.3269 146.242 12.0519C145.908 11.7768 145.417 11.6393 144.768 11.6393C144.14 11.6393 143.511 11.9045 142.883 12.4349C142.254 12.9457 141.94 13.4957 141.94 14.0851H145.652Z" fill="white"/>
<path d="M164.194 0.854533C164.351 0.559866 164.616 0.3536 164.99 0.235734C165.363 0.117866 165.854 0.0589326 166.463 0.0589326C167.092 0.0589326 167.593 0.117866 167.966 0.235734C168.339 0.3536 168.594 0.559866 168.732 0.854533C168.889 1.1492 168.977 1.4144 168.997 1.65013C169.036 1.86622 169.056 2.20018 169.056 2.652V20.2436C169.056 20.6954 169.036 21.0392 168.997 21.2749C168.977 21.491 168.889 21.7366 168.732 22.0116C168.437 22.542 167.602 22.8072 166.227 22.8072C164.872 22.8072 164.115 22.3259 163.958 21.3633C163.133 22.3063 161.984 22.7777 160.511 22.7777C158.743 22.7777 157.132 22.0116 155.678 20.4793C154.224 18.9274 153.498 17.13 153.498 15.0869C153.498 13.0243 154.224 11.217 155.678 9.66507C157.152 8.11316 158.762 7.3372 160.511 7.3372C161.964 7.3372 163.094 7.82831 163.899 8.81053V2.62253C163.899 2.17071 163.909 1.83676 163.929 1.62067C163.968 1.38493 164.057 1.12956 164.194 0.854533ZM159.42 16.8549C159.931 17.3853 160.55 17.6505 161.277 17.6505C162.004 17.6505 162.603 17.3853 163.074 16.8549C163.565 16.3245 163.811 15.745 163.811 15.1164C163.811 14.4681 163.575 13.869 163.104 13.3189C162.652 12.7689 162.033 12.4939 161.247 12.4939C160.462 12.4939 159.833 12.7689 159.362 13.3189C158.89 13.8493 158.654 14.4387 158.654 15.0869C158.654 15.7352 158.91 16.3245 159.42 16.8549Z" fill="white"/>
<path d="M170.961 15.0869C170.961 12.7296 171.786 10.7848 173.436 9.25253C175.087 7.72027 176.972 6.95413 179.094 6.95413C181.216 6.95413 183.092 7.72027 184.722 9.25253C186.353 10.7652 187.168 12.7001 187.168 15.0575C187.168 16.688 186.746 18.1416 185.901 19.4185C185.056 20.6758 184.025 21.6089 182.807 22.2179C181.609 22.8072 180.361 23.1019 179.065 23.1019C177.768 23.1019 176.511 22.7876 175.293 22.1589C174.075 21.5107 173.044 20.5677 172.199 19.3301C171.374 18.0729 170.961 16.6585 170.961 15.0869ZM177.12 17.2085C177.748 17.68 178.387 17.9157 179.035 17.9157C179.683 17.9157 180.332 17.6702 180.98 17.1791C181.628 16.688 181.952 15.9611 181.952 14.9985C181.952 14.036 181.648 13.3189 181.039 12.8475C180.43 12.376 179.772 12.1403 179.065 12.1403C178.357 12.1403 177.699 12.3858 177.09 12.8769C176.481 13.368 176.177 14.0949 176.177 15.0575C176.177 16.0004 176.491 16.7174 177.12 17.2085Z" fill="white"/>
<path d="M79.2544 40.7865C79.1104 40.7865 78.9984 40.7585 78.9184 40.7025C78.8464 40.6545 78.7984 40.5825 78.7744 40.4865C78.7504 40.3825 78.7384 40.2705 78.7384 40.1505V33.0225C78.7384 32.9025 78.7504 32.7985 78.7744 32.7105C78.8064 32.6145 78.8584 32.5425 78.9304 32.4945C79.0104 32.4385 79.1224 32.4105 79.2664 32.4105H82.6144C83.0624 32.4105 83.4544 32.5105 83.7904 32.7105C84.1344 32.9105 84.4024 33.1825 84.5944 33.5265C84.7864 33.8705 84.8784 34.2465 84.8704 34.6545C84.8784 34.8625 84.8544 35.0665 84.7984 35.2665C84.7424 35.4665 84.6584 35.6545 84.5464 35.8305C84.4424 35.9985 84.3104 36.1385 84.1504 36.2505C84.3664 36.3865 84.5504 36.5625 84.7024 36.7785C84.8544 36.9945 84.9704 37.2345 85.0504 37.4985C85.1304 37.7625 85.1704 38.0385 85.1704 38.3265C85.1624 38.6705 85.0984 38.9945 84.9784 39.2985C84.8584 39.5945 84.6864 39.8545 84.4624 40.0785C84.2384 40.3025 83.9784 40.4785 83.6824 40.6065C83.3864 40.7265 83.0704 40.7865 82.7344 40.7865H79.2544ZM79.8184 39.7545H82.6144C82.9264 39.7545 83.1944 39.6945 83.4184 39.5745C83.6424 39.4545 83.8144 39.2785 83.9344 39.0465C84.0544 38.8145 84.1144 38.5305 84.1144 38.1945C84.1144 37.9065 84.0744 37.6745 83.9944 37.4985C83.9144 37.3225 83.8064 37.1905 83.6704 37.1025C83.5344 37.0065 83.3864 36.9385 83.2264 36.8985C83.0744 36.8585 82.9224 36.8385 82.7704 36.8385C82.6264 36.8305 82.4944 36.8265 82.3744 36.8265H81.6424C81.4824 36.8265 81.3664 36.7865 81.2944 36.7065C81.2224 36.6265 81.1864 36.4985 81.1864 36.3225C81.1864 36.1545 81.2224 36.0345 81.2944 35.9625C81.3744 35.8905 81.4944 35.8545 81.6544 35.8545H82.3864C82.5144 35.8545 82.6584 35.8505 82.8184 35.8425C82.9784 35.8345 83.1344 35.8025 83.2864 35.7465C83.4464 35.6905 83.5744 35.5865 83.6704 35.4345C83.7744 35.2745 83.8264 35.0505 83.8264 34.7625C83.8264 34.3145 83.7064 33.9865 83.4664 33.7785C83.2264 33.5625 82.8304 33.4545 82.2784 33.4545H79.8184V39.7545ZM89.2108 40.8465C88.7308 40.8465 88.3028 40.7665 87.9268 40.6065C87.5508 40.4465 87.2308 40.2305 86.9668 39.9585C86.7108 39.6785 86.5148 39.3585 86.3788 38.9985C86.2428 38.6385 86.1748 38.2505 86.1748 37.8345C86.1748 37.2825 86.3028 36.7905 86.5588 36.3585C86.8148 35.9265 87.1668 35.5865 87.6148 35.3385C88.0708 35.0825 88.5908 34.9545 89.1748 34.9545C89.5748 34.9545 89.9308 35.0185 90.2428 35.1465C90.5628 35.2665 90.8348 35.4305 91.0588 35.6385C91.2828 35.8465 91.4548 36.0785 91.5748 36.3345C91.6948 36.5905 91.7548 36.8465 91.7548 37.1025C91.7548 37.5105 91.6588 37.7985 91.4668 37.9665C91.2748 38.1265 91.0388 38.2065 90.7588 38.2065H87.2908C87.2828 38.5585 87.3748 38.8625 87.5668 39.1185C87.7668 39.3665 88.0148 39.5585 88.3108 39.6945C88.6148 39.8305 88.9188 39.8985 89.2228 39.8985C89.4468 39.8985 89.6388 39.8865 89.7988 39.8625C89.9588 39.8385 90.0988 39.8065 90.2188 39.7665C90.3388 39.7265 90.4428 39.6865 90.5308 39.6465C90.6188 39.6065 90.6948 39.5665 90.7588 39.5265C90.8308 39.4865 90.8988 39.4585 90.9628 39.4425C91.0348 39.4265 91.1028 39.4345 91.1668 39.4665C91.2388 39.4905 91.2948 39.5425 91.3348 39.6225C91.3828 39.6865 91.4148 39.7465 91.4308 39.8025C91.4468 39.8585 91.4548 39.9185 91.4548 39.9825C91.4548 40.0945 91.3588 40.2185 91.1668 40.3545C90.9748 40.4905 90.7068 40.6065 90.3628 40.7025C90.0268 40.7985 89.6428 40.8465 89.2108 40.8465ZM87.2908 37.4985H90.3028C90.4548 37.4985 90.5668 37.4785 90.6388 37.4385C90.7188 37.3985 90.7588 37.2905 90.7588 37.1145C90.7588 36.8905 90.6908 36.6905 90.5548 36.5145C90.4188 36.3305 90.2308 36.1825 89.9908 36.0705C89.7588 35.9585 89.4908 35.9025 89.1868 35.9025C88.8348 35.9025 88.5108 35.9745 88.2148 36.1185C87.9268 36.2545 87.6988 36.4425 87.5308 36.6825C87.3628 36.9225 87.2828 37.1945 87.2908 37.4985ZM94.8872 40.8465C94.6952 40.8465 94.4952 40.8265 94.2872 40.7865C94.0792 40.7465 93.8752 40.6905 93.6752 40.6185C93.4832 40.5385 93.3112 40.4465 93.1592 40.3425C93.0152 40.2385 92.9072 40.1225 92.8352 39.9945C92.7952 39.9145 92.7712 39.8425 92.7632 39.7785C92.7552 39.7065 92.7672 39.6385 92.7992 39.5745C92.8312 39.5105 92.8792 39.4465 92.9432 39.3825C93.0232 39.2865 93.1032 39.2425 93.1832 39.2505C93.2632 39.2505 93.3632 39.3025 93.4832 39.4065C93.5712 39.4625 93.6752 39.5265 93.7952 39.5985C93.9152 39.6625 94.0392 39.7225 94.1672 39.7785C94.2952 39.8265 94.4232 39.8705 94.5512 39.9105C94.6872 39.9425 94.8192 39.9585 94.9472 39.9585C95.3152 39.9585 95.6112 39.8905 95.8352 39.7545C96.0592 39.6105 96.1712 39.4225 96.1712 39.1905C96.1712 39.0545 96.1432 38.9385 96.0872 38.8425C96.0312 38.7465 95.9552 38.6665 95.8592 38.6025C95.7632 38.5305 95.6552 38.4705 95.5352 38.4225C95.4152 38.3745 95.2792 38.3305 95.1272 38.2905C94.9832 38.2425 94.8392 38.1985 94.6952 38.1585C94.4792 38.1025 94.2672 38.0385 94.0592 37.9665C93.8512 37.8945 93.6632 37.8025 93.4952 37.6905C93.3272 37.5705 93.1912 37.4225 93.0872 37.2465C92.9832 37.0625 92.9312 36.8305 92.9312 36.5505C92.9312 36.2225 93.0152 35.9385 93.1832 35.6985C93.3512 35.4585 93.5872 35.2745 93.8912 35.1465C94.1952 35.0105 94.5512 34.9425 94.9592 34.9425C95.1352 34.9425 95.2992 34.9545 95.4512 34.9785C95.6032 35.0025 95.7472 35.0425 95.8832 35.0985C96.0272 35.1465 96.1632 35.2065 96.2912 35.2785C96.4192 35.3425 96.5432 35.4225 96.6632 35.5185C96.8072 35.6145 96.8832 35.7185 96.8912 35.8305C96.8992 35.9425 96.8552 36.0585 96.7592 36.1785C96.6872 36.2825 96.6072 36.3505 96.5192 36.3825C96.4312 36.4065 96.3432 36.3825 96.2552 36.3105C96.1272 36.2145 95.9912 36.1305 95.8472 36.0585C95.7032 35.9865 95.5552 35.9265 95.4032 35.8785C95.2512 35.8305 95.0952 35.8065 94.9352 35.8065C94.7352 35.8065 94.5552 35.8385 94.3952 35.9025C94.2432 35.9585 94.1232 36.0465 94.0352 36.1665C93.9552 36.2785 93.9152 36.4065 93.9152 36.5505C93.9152 36.6785 93.9472 36.7825 94.0112 36.8625C94.0832 36.9425 94.1712 37.0105 94.2752 37.0665C94.3872 37.1225 94.5152 37.1745 94.6592 37.2225C94.8112 37.2625 94.9672 37.3025 95.1272 37.3425C95.3592 37.3985 95.5952 37.4665 95.8352 37.5465C96.0832 37.6185 96.3032 37.7185 96.4952 37.8465C96.6952 37.9665 96.8552 38.1305 96.9752 38.3385C97.1032 38.5385 97.1672 38.8065 97.1672 39.1425C97.1672 39.6705 96.9592 40.0865 96.5432 40.3905C96.1272 40.6945 95.5752 40.8465 94.8872 40.8465ZM101.012 40.7865C100.636 40.7865 100.316 40.7505 100.052 40.6785C99.7955 40.6065 99.5835 40.4945 99.4155 40.3425C99.2475 40.1905 99.1275 39.9945 99.0555 39.7545C98.9835 39.5065 98.9475 39.2025 98.9475 38.8425V33.5385C98.9475 33.4265 98.9595 33.3305 98.9835 33.2505C99.0075 33.1705 99.0555 33.1105 99.1275 33.0705C99.1995 33.0225 99.3115 32.9985 99.4635 32.9985C99.6155 32.9985 99.7315 33.0225 99.8115 33.0705C99.8915 33.1105 99.9435 33.1705 99.9675 33.2505C99.9915 33.3225 100.004 33.4145 100.004 33.5265V38.8425C100.004 39.0505 100.02 39.2185 100.052 39.3465C100.092 39.4665 100.148 39.5585 100.22 39.6225C100.3 39.6865 100.404 39.7265 100.532 39.7425C100.66 39.7585 100.816 39.7665 101 39.7665C101.128 39.7665 101.232 39.7785 101.312 39.8025C101.392 39.8265 101.452 39.8745 101.492 39.9465C101.532 40.0185 101.552 40.1265 101.552 40.2705C101.552 40.4225 101.528 40.5385 101.48 40.6185C101.44 40.6905 101.376 40.7345 101.288 40.7505C101.208 40.7745 101.116 40.7865 101.012 40.7865ZM98.3235 35.1105L99.4755 35.1225L101.144 35.0985C101.256 35.0985 101.352 35.1105 101.432 35.1345C101.512 35.1505 101.572 35.1985 101.612 35.2785C101.66 35.3505 101.684 35.4625 101.684 35.6145C101.684 35.7665 101.664 35.8825 101.624 35.9625C101.584 36.0345 101.524 36.0825 101.444 36.1065C101.364 36.1305 101.268 36.1425 101.156 36.1425L99.5115 36.1185L98.2995 36.1305C98.1315 36.1305 98.0155 36.0905 97.9515 36.0105C97.8955 35.9305 97.8675 35.7985 97.8675 35.6145C97.8675 35.4385 97.9035 35.3105 97.9755 35.2305C98.0475 35.1505 98.1635 35.1105 98.3235 35.1105ZM108.33 40.9065C108.026 40.9065 107.738 40.8705 107.466 40.7985C107.202 40.7265 106.958 40.6305 106.734 40.5105C106.518 40.3825 106.326 40.2425 106.158 40.0905C105.99 39.9385 105.858 39.7865 105.762 39.6345C105.674 39.5065 105.618 39.4025 105.594 39.3225C105.57 39.2345 105.574 39.1505 105.606 39.0705C105.646 38.9905 105.722 38.9025 105.834 38.8065C105.962 38.7105 106.074 38.6665 106.17 38.6745C106.266 38.6745 106.354 38.7105 106.434 38.7825C106.522 38.8545 106.61 38.9505 106.698 39.0705C106.898 39.3425 107.142 39.5425 107.43 39.6705C107.718 39.7905 108.002 39.8505 108.282 39.8505C108.642 39.8505 108.962 39.8025 109.242 39.7065C109.522 39.6105 109.742 39.4665 109.902 39.2745C110.07 39.0745 110.154 38.8185 110.154 38.5065C110.154 38.2505 110.09 38.0345 109.962 37.8585C109.834 37.6825 109.662 37.5345 109.446 37.4145C109.23 37.2865 108.99 37.1785 108.726 37.0905C108.462 36.9945 108.194 36.9025 107.922 36.8145C107.706 36.7425 107.494 36.6625 107.286 36.5745C107.078 36.4785 106.882 36.3745 106.698 36.2625C106.514 36.1425 106.35 36.0025 106.206 35.8425C106.07 35.6825 105.962 35.4945 105.882 35.2785C105.81 35.0625 105.774 34.8105 105.774 34.5225C105.774 34.0825 105.878 33.6945 106.086 33.3585C106.302 33.0225 106.602 32.7625 106.986 32.5785C107.37 32.3865 107.814 32.2905 108.318 32.2905C108.614 32.2905 108.886 32.3185 109.134 32.3745C109.382 32.4305 109.602 32.5065 109.794 32.6025C109.986 32.6905 110.15 32.7865 110.286 32.8905C110.422 32.9865 110.526 33.0785 110.598 33.1665C110.742 33.3185 110.822 33.4465 110.838 33.5505C110.854 33.6545 110.794 33.7825 110.658 33.9345C110.53 34.0785 110.406 34.1545 110.286 34.1625C110.166 34.1705 110.034 34.1145 109.89 33.9945C109.738 33.8185 109.578 33.6825 109.41 33.5865C109.25 33.4905 109.078 33.4265 108.894 33.3945C108.718 33.3545 108.522 33.3345 108.306 33.3345C108.098 33.3345 107.902 33.3625 107.718 33.4185C107.542 33.4665 107.386 33.5425 107.25 33.6465C107.122 33.7505 107.022 33.8785 106.95 34.0305C106.878 34.1745 106.842 34.3425 106.842 34.5345C106.842 34.7505 106.898 34.9345 107.01 35.0865C107.13 35.2385 107.286 35.3705 107.478 35.4825C107.67 35.5865 107.886 35.6825 108.126 35.7705C108.366 35.8505 108.618 35.9305 108.882 36.0105C109.17 36.0985 109.454 36.2065 109.734 36.3345C110.014 36.4545 110.266 36.6065 110.49 36.7905C110.714 36.9665 110.894 37.1905 111.03 37.4625C111.166 37.7345 111.234 38.0705 111.234 38.4705C111.234 38.8705 111.154 39.2225 110.994 39.5265C110.842 39.8305 110.63 40.0865 110.358 40.2945C110.086 40.4945 109.774 40.6465 109.422 40.7505C109.078 40.8545 108.714 40.9065 108.33 40.9065ZM115.215 40.8105C114.799 40.8105 114.407 40.7425 114.039 40.6065C113.679 40.4705 113.359 40.2745 113.079 40.0185C112.807 39.7625 112.591 39.4585 112.431 39.1065C112.279 38.7465 112.203 38.3385 112.203 37.8825C112.203 37.4265 112.279 37.0225 112.431 36.6705C112.591 36.3105 112.807 36.0025 113.079 35.7465C113.351 35.4905 113.667 35.2945 114.027 35.1585C114.395 35.0225 114.783 34.9545 115.191 34.9545C115.463 34.9545 115.731 34.9985 115.995 35.0865C116.259 35.1665 116.491 35.2745 116.691 35.4105C116.899 35.5385 117.047 35.6745 117.135 35.8185C117.215 35.9225 117.271 36.0105 117.303 36.0825C117.343 36.1465 117.347 36.2225 117.315 36.3105C117.283 36.3745 117.239 36.4345 117.183 36.4905C117.127 36.5385 117.071 36.5785 117.015 36.6105C116.871 36.7225 116.727 36.7385 116.583 36.6585C116.495 36.5705 116.395 36.4905 116.283 36.4185C116.179 36.3385 116.067 36.2665 115.947 36.2025C115.827 36.1385 115.703 36.0905 115.575 36.0585C115.455 36.0185 115.327 35.9985 115.191 35.9985C114.815 35.9985 114.483 36.0785 114.195 36.2385C113.907 36.3905 113.683 36.6105 113.523 36.8985C113.371 37.1785 113.295 37.5065 113.295 37.8825C113.295 38.2585 113.371 38.5865 113.523 38.8665C113.683 39.1465 113.903 39.3665 114.183 39.5265C114.471 39.6865 114.799 39.7665 115.167 39.7665C115.335 39.7665 115.495 39.7465 115.647 39.7065C115.807 39.6585 115.955 39.5985 116.091 39.5265C116.227 39.4465 116.339 39.3625 116.427 39.2745C116.507 39.2185 116.575 39.1705 116.631 39.1305C116.687 39.0905 116.755 39.0705 116.835 39.0705C116.899 39.0705 116.967 39.0985 117.039 39.1545C117.111 39.2025 117.187 39.2785 117.267 39.3825C117.331 39.4545 117.367 39.5305 117.375 39.6105C117.391 39.6905 117.379 39.7665 117.339 39.8385C117.299 39.9105 117.235 39.9825 117.147 40.0545C117.019 40.1825 116.847 40.3065 116.631 40.4265C116.423 40.5385 116.195 40.6305 115.947 40.7025C115.699 40.7745 115.455 40.8105 115.215 40.8105ZM118.946 40.7865C118.794 40.7865 118.678 40.7625 118.598 40.7145C118.518 40.6745 118.466 40.6145 118.442 40.5345C118.426 40.4465 118.418 40.3465 118.418 40.2345V32.8425C118.418 32.7305 118.43 32.6345 118.454 32.5545C118.478 32.4745 118.53 32.4145 118.61 32.3745C118.69 32.3265 118.806 32.3025 118.958 32.3025C119.118 32.3025 119.234 32.3265 119.306 32.3745C119.386 32.4145 119.434 32.4745 119.45 32.5545C119.474 32.6345 119.486 32.7345 119.486 32.8545V35.8185C119.678 35.5945 119.91 35.3945 120.182 35.2185C120.462 35.0425 120.802 34.9545 121.202 34.9545C121.674 34.9545 122.094 35.0665 122.462 35.2905C122.838 35.5065 123.134 35.8145 123.35 36.2145C123.574 36.6145 123.686 37.0905 123.686 37.6425V40.2465C123.686 40.3585 123.674 40.4545 123.65 40.5345C123.626 40.6145 123.578 40.6745 123.506 40.7145C123.434 40.7625 123.318 40.7865 123.158 40.7865C123.006 40.7865 122.89 40.7625 122.81 40.7145C122.73 40.6745 122.678 40.6145 122.654 40.5345C122.63 40.4465 122.618 40.3465 122.618 40.2345V37.6305C122.618 37.2945 122.562 37.0025 122.45 36.7545C122.338 36.5065 122.17 36.3145 121.946 36.1785C121.73 36.0425 121.454 35.9745 121.118 35.9745C120.662 35.9745 120.286 36.1065 119.99 36.3705C119.702 36.6265 119.534 36.9705 119.486 37.4025V40.2465C119.486 40.3585 119.474 40.4545 119.45 40.5345C119.426 40.6145 119.374 40.6745 119.294 40.7145C119.222 40.7625 119.106 40.7865 118.946 40.7865ZM127.47 40.8585C127.078 40.8585 126.702 40.7825 126.342 40.6305C125.99 40.4785 125.674 40.2705 125.394 40.0065C125.114 39.7345 124.894 39.4185 124.734 39.0585C124.574 38.6985 124.494 38.3065 124.494 37.8825C124.494 37.4665 124.57 37.0825 124.722 36.7305C124.874 36.3705 125.086 36.0545 125.358 35.7825C125.63 35.5105 125.942 35.2985 126.294 35.1465C126.654 34.9865 127.038 34.9065 127.446 34.9065C127.998 34.9065 128.494 35.0385 128.934 35.3025C129.382 35.5585 129.738 35.9105 130.002 36.3585C130.266 36.8065 130.398 37.3105 130.398 37.8705C130.398 38.3105 130.318 38.7145 130.158 39.0825C129.998 39.4425 129.782 39.7545 129.51 40.0185C129.238 40.2825 128.926 40.4905 128.574 40.6425C128.222 40.7865 127.854 40.8585 127.47 40.8585ZM127.446 39.8145C127.782 39.8145 128.094 39.7305 128.382 39.5625C128.67 39.3945 128.902 39.1625 129.078 38.8665C129.254 38.5705 129.342 38.2345 129.342 37.8585C129.342 37.4825 129.258 37.1505 129.09 36.8625C128.93 36.5745 128.706 36.3505 128.418 36.1905C128.13 36.0305 127.802 35.9505 127.434 35.9505C127.082 35.9505 126.762 36.0345 126.474 36.2025C126.194 36.3705 125.966 36.5985 125.79 36.8865C125.622 37.1745 125.538 37.5025 125.538 37.8705C125.538 38.2545 125.626 38.5945 125.802 38.8905C125.978 39.1785 126.21 39.4065 126.498 39.5745C126.794 39.7345 127.11 39.8145 127.446 39.8145ZM134.185 40.8585C133.793 40.8585 133.417 40.7825 133.057 40.6305C132.705 40.4785 132.389 40.2705 132.109 40.0065C131.829 39.7345 131.609 39.4185 131.449 39.0585C131.289 38.6985 131.209 38.3065 131.209 37.8825C131.209 37.4665 131.285 37.0825 131.437 36.7305C131.589 36.3705 131.801 36.0545 132.073 35.7825C132.345 35.5105 132.657 35.2985 133.009 35.1465C133.369 34.9865 133.753 34.9065 134.161 34.9065C134.713 34.9065 135.209 35.0385 135.649 35.3025C136.097 35.5585 136.453 35.9105 136.717 36.3585C136.981 36.8065 137.113 37.3105 137.113 37.8705C137.113 38.3105 137.033 38.7145 136.873 39.0825C136.713 39.4425 136.497 39.7545 136.225 40.0185C135.953 40.2825 135.641 40.4905 135.289 40.6425C134.937 40.7865 134.569 40.8585 134.185 40.8585ZM134.161 39.8145C134.497 39.8145 134.809 39.7305 135.097 39.5625C135.385 39.3945 135.617 39.1625 135.793 38.8665C135.969 38.5705 136.057 38.2345 136.057 37.8585C136.057 37.4825 135.973 37.1505 135.805 36.8625C135.645 36.5745 135.421 36.3505 135.133 36.1905C134.845 36.0305 134.517 35.9505 134.149 35.9505C133.797 35.9505 133.477 36.0345 133.189 36.2025C132.909 36.3705 132.681 36.5985 132.505 36.8865C132.337 37.1745 132.253 37.5025 132.253 37.8705C132.253 38.2545 132.341 38.5945 132.517 38.8905C132.693 39.1785 132.925 39.4065 133.213 39.5745C133.509 39.7345 133.825 39.8145 134.161 39.8145ZM140.096 40.7865C139.84 40.7865 139.608 40.7625 139.4 40.7145C139.2 40.6745 139.024 40.6065 138.872 40.5105C138.72 40.4145 138.592 40.2905 138.488 40.1385C138.392 39.9865 138.32 39.8025 138.272 39.5865C138.232 39.3705 138.212 39.1185 138.212 38.8305V32.8305C138.212 32.7105 138.22 32.6105 138.236 32.5305C138.26 32.4505 138.312 32.3905 138.392 32.3505C138.472 32.3025 138.584 32.2785 138.728 32.2785C138.888 32.2785 139.004 32.2985 139.076 32.3385C139.156 32.3785 139.208 32.4385 139.232 32.5185C139.256 32.5985 139.268 32.6945 139.268 32.8065V38.8185C139.268 38.9785 139.284 39.1185 139.316 39.2385C139.348 39.3505 139.396 39.4465 139.46 39.5265C139.532 39.6065 139.62 39.6625 139.724 39.6945C139.828 39.7265 139.952 39.7425 140.096 39.7425C140.192 39.7425 140.272 39.7545 140.336 39.7785C140.408 39.8025 140.464 39.8505 140.504 39.9225C140.544 39.9945 140.564 40.1065 140.564 40.2585C140.564 40.4185 140.544 40.5385 140.504 40.6185C140.464 40.6905 140.408 40.7345 140.336 40.7505C140.272 40.7745 140.192 40.7865 140.096 40.7865Z" fill="white"/>
<path d="M34.8936 48.4016C34.8936 48.3973 34.8936 48.3888 34.8936 48.3845C34.8936 48.3931 34.8978 48.4016 34.8978 48.4101C34.8978 48.3973 34.8978 48.3888 34.8936 48.376C34.8178 46.2327 34.4723 14.5372 34.5186 11.1776C34.5186 7.97526 31.1902 4.40724 25.1694 2.93155C17.8299 1.1284 9.83318 3.5652 9.84161 3.55244C10.3725 14.8136 12.715 25.9302 16.8735 36.9065C16.7977 36.9277 22.0643 35.7668 27.0527 37.2042C33.8782 39.1987 34.7461 46.9131 34.8768 48.2867C34.645 46.9089 32.669 39.1774 25.7677 38.5523C18.9591 37.9144 16.2584 39.305 16.309 39.3008C11.7502 29.0432 8.95683 18.6751 7.92458 8.20916C6.83335 8.48984 5.74212 8.77477 4.6551 9.06396C5.96542 20.1168 9.58039 31.093 15.5 41.997C15.3989 42.014 18.6642 39.7686 25.7719 39.9769C32.5173 40.1811 34.6535 47.1768 34.8768 48.3335C34.8768 48.3505 34.881 48.3718 34.881 48.3845C34.5271 46.9939 32.5721 41.8736 25.4601 41.6057C18.5673 41.3591 15.7022 44.0383 15.8413 44.0128C9.83318 33.9891 5.87694 23.9229 3.9894 13.81C2.93609 14.0694 1.88278 14.3246 0.837891 14.584C3.13833 25.1477 8.0594 35.7115 15.5969 46.2795C15.2556 46.373 18.9464 42.4478 25.9278 42.7497C32.7912 43.1537 34.5776 47.3809 34.8978 48.4739C34.8978 48.4781 34.8978 48.4781 34.8978 48.4781C34.8978 48.4781 34.8978 48.4781 34.8978 48.4739C34.8978 48.4781 34.902 48.4824 34.902 48.4866C34.9062 48.4781 34.902 48.4568 34.8978 48.4186C34.8978 48.4143 34.8936 48.4101 34.8936 48.4016ZM34.8978 48.4228C34.8978 48.4186 34.8978 48.4143 34.8978 48.4101C34.8978 48.4143 34.8978 48.4143 34.8978 48.4228C34.8978 48.4186 34.8978 48.4186 34.8978 48.4228ZM34.902 48.4951V48.4909C34.902 48.4866 34.902 48.4951 34.902 48.4951ZM34.902 48.4866C34.9484 48.6397 34.961 48.729 34.9526 48.729C34.961 48.729 34.9442 48.6142 34.8978 48.4186C34.902 48.4611 34.9062 48.4824 34.902 48.4866ZM35.8795 48.3888C35.8753 48.3973 35.8753 48.4058 35.8753 48.4143V48.4058C35.8795 48.4016 35.8795 48.3973 35.8795 48.3888ZM35.8753 48.4951V48.4866C35.8753 48.4866 35.8711 48.4951 35.8753 48.4951ZM69.9352 14.584C68.8861 14.3246 67.837 14.0651 66.7837 13.81C64.8962 23.9229 60.9399 33.9891 54.9234 44.0128C55.0624 44.0383 52.1974 41.3591 45.3046 41.6057C38.201 41.8694 36.2461 46.9897 35.8879 48.3803C35.8879 48.3633 35.8921 48.3463 35.8921 48.3293C36.1154 47.1725 38.2516 40.1726 44.997 39.9727C52.109 39.7686 55.3321 42.0863 55.2268 42.0693C61.1717 31.1398 64.7993 20.138 66.1138 9.06396C65.0268 8.77477 63.9355 8.48984 62.8443 8.20916C61.8121 18.6751 59.0187 29.0432 54.4599 39.3008C54.5274 39.3093 51.359 37.774 45.0012 38.5523C38.0198 39.3901 36.0986 47.0747 35.8921 48.325C36.0101 47.0662 36.8275 39.2242 43.7162 37.2084C48.7089 35.771 53.9712 36.932 53.8996 36.9107C58.0581 25.9387 60.4006 14.8179 60.9315 3.55669C60.9441 3.56945 52.9432 1.13265 45.6079 2.9358C39.5872 4.40298 36.2545 7.97101 36.2545 11.1776C36.2966 14.5415 35.9511 46.322 35.8795 48.3888C35.8795 48.3803 35.8837 48.3718 35.8837 48.3633C35.8837 48.3718 35.8795 48.3846 35.8795 48.3931C35.8795 48.3973 35.8795 48.4016 35.8795 48.4058C35.8795 48.4058 35.8795 48.4101 35.8795 48.4143C35.8753 48.4568 35.8711 48.4824 35.8753 48.4909C35.8753 48.4866 35.8795 48.4824 35.8795 48.4781V48.4824C35.8795 48.4781 35.8795 48.4781 35.8795 48.4739C36.1997 47.3767 37.9903 43.1537 44.8495 42.754C51.8309 42.452 55.5175 46.373 55.1804 46.2837C62.7137 35.7115 67.6348 25.1477 69.9352 14.584ZM35.8205 48.7333C35.8163 48.729 35.8289 48.644 35.8711 48.4866C35.8669 48.4781 35.8711 48.4568 35.8753 48.4186C35.8289 48.6142 35.8121 48.729 35.8205 48.7333Z" fill="#FF9B24"/>
</svg>
