<svg id="eLl4oyr9g061" xmlns="http://www.w3.org/2000/svg" xmlns:xlink="http://www.w3.org/1999/xlink" viewBox="0 0 636 607" shape-rendering="geometricPrecision" text-rendering="geometricPrecision">
<style><![CDATA[
#eLl4oyr9g064_tr {animation: eLl4oyr9g064_tr__tr 3000ms linear infinite normal forwards}@keyframes eLl4oyr9g064_tr__tr { 0% {transform: translate(344.991501px,429.308594px) rotate(0deg)} 50% {transform: translate(344.991501px,429.308594px) rotate(11.551339deg)} 100% {transform: translate(344.991501px,429.308594px) rotate(-0.040079deg)}} #eLl4oyr9g0689_to {animation: eLl4oyr9g0689_to__to 3000ms linear infinite normal forwards}@keyframes eLl4oyr9g0689_to__to { 0% {transform: translate(186.523842px,254.074532px)} 50% {transform: translate(186.523842px,250.074532px)} 100% {transform: translate(186.523842px,254.074532px)}} #eLl4oyr9g0690_to {animation: eLl4oyr9g0690_to__to 3000ms linear infinite normal forwards}@keyframes eLl4oyr9g0690_to__to { 0% {transform: translate(184.423603px,166.916992px)} 50% {transform: translate(214.423603px,166.916992px)} 100% {transform: translate(184.423603px,166.916992px)}} #eLl4oyr9g0691_to {animation: eLl4oyr9g0691_to__to 3000ms linear infinite normal forwards}@keyframes eLl4oyr9g0691_to__to { 0% {transform: translate(90.920502px,336.682877px)} 50% {transform: translate(120.920502px,336.682877px)} 100% {transform: translate(90.920502px,336.682877px)}} #eLl4oyr9g0692_to {animation: eLl4oyr9g0692_to__to 3000ms linear infinite normal forwards}@keyframes eLl4oyr9g0692_to__to { 0% {offset-distance: 0%} 50% {offset-distance: 49.922726%} 100% {offset-distance: 100%}}
]]></style>
<g clip-path="url(#eLl4oyr9g06101)"><g><g id="eLl4oyr9g064_tr" transform="translate(344.991501,429.308594) rotate(0)"><path d="M312.941,457.42c-2.061-2.325.586-6.523,3.283-4.282c1.642,1.372,4.238.519,4.288-1.773.034-1.556-.05-3.697,1.006-4.968.636-.753,1.574-.887,2.462-1.188c1.139-.385,2.178-.853,3.099-1.656c3.183-2.743,3.384-7.243,2.496-11.057-1.005-4.316-2.328-8.096-1.893-12.596.352-3.814,1.726-7.561,3.954-10.672c4.439-6.189,12.798-8.916,20.035-6.557c4.171,1.354,7.17,4.616,9.548,8.163c2.597,3.881,4.775,8.029,6.684,12.295c4.44,9.902,7.237,20.474,10.051,30.929.838,3.112,5.696,1.79,4.842-1.338-2.781-10.304-5.595-20.609-9.817-30.428-2.044-4.751-4.389-9.384-7.237-13.7-2.613-3.948-5.829-7.728-10.218-9.752-7.907-3.647-17.489-2.175-24.14,3.345-6.868,5.688-9.749,15.256-8.56,23.904.385,2.794,1.441,5.37,1.977,8.113.486,2.392.385,5.136-2.178,6.173-2.395.953-4.372,1.522-5.729,3.897-1.206,2.125-1.39,4.701-1.441,7.093c1.424-.585,2.865-1.188,4.289-1.773-3.049-2.559-7.706-2.71-10.587.284-3.016,3.128-2.547,7.996.201,11.091c2.177,2.425,5.729-1.138,3.585-3.547Z" transform="translate(-344.991501,-429.308594)" fill="#1b1b1b"/></g><path d="M357.802,417.307c0,0-17.221,8.03-9.18,18.351s14.357,5.737,14.357,5.737s2.864,4.015,10.905,4.015s18.946-7.461,17.79-13.75c-1.155-6.323-26.417-19.505-33.872-14.353Z" fill="#ff9b24"/><path d="M442.65,367.793c-.871,1.305-23.419,44.161-51.596,51.957c0,0-13.87-18.183-25.144-13.416s-12.581,22.516-5.21,23.82c7.371,1.305,9.967-.87,11.274-5.62c1.307-4.768,3.468-5.203,3.468-5.203s0,13.851,13.434,14.721c13.435.87,72.837-44.161,73.273-53.261s-19.499-12.998-19.499-12.998Z" fill="#fad8b0"/><path d="M385.962,441.061c-.168-1.656-.654-3.045-.871-3.597-.788-1.974-13.419,6.307-11.844,4.734c1.575-1.572,5.93-14.586,1.575-8.28-2.664,3.864-9.314,6.106-13.251,7.26c3.216-2.074,7.538-6.708,9.481-8.866-1.591,1.589-5.025,4.249-10.034,3.981-7.103-.401-7.103-12.228-8.694-10.254-1.575,1.974-3.953,7.879-3.953,7.879s-.319.033-.805.117c.285.535.637,1.071,1.056,1.623c8.041,10.321,14.356,5.737,14.356,5.737s2.865,4.015,10.906,4.015c3.919,0,8.509-1.79,12.078-4.349Z" fill="#fad8b0"/><path d="M371.036,432.312c.67-.669,1.022-1.154,1.022-1.154s-.385.452-1.022,1.154Z" fill="#fad8b0"/><path d="M462.166,380.774c.435-9.1-19.516-12.998-19.516-12.998-.218.335-1.893,3.446-4.741,7.996c2.228,2.877,14.842,9.719,14.842,9.719s-39.869,36.667-49.837,41.903c-1.457.77-2.563,1.924-3.3,3.262c21.711-10.438,62.183-42.371,62.552-49.882Z" fill="#ff9b24"/><path d="M567.535,372.828c0,0,19.482,43.241,12.446,78.37c0,0,10.822,19.454,2.714,32.97-8.124,13.516-9.749,9.184-9.749,9.184s-5.947-16.21-4.875-27.568l-3.786,7.026c0,0-5.411-12.429,3.786-17.832c0,0-3.786-52.425-15.697-66.493-11.893-14.034,15.161-15.657,15.161-15.657Z" fill="#fad8b0"/><path d="M564.285,472.827l3.786-7.026c-1.089,11.358,4.875,27.567,4.875,27.567s1.625,4.333,9.749-9.183c1.743-2.894,2.614-6.073,2.899-9.268-2.145,4.032-4.591,7.478-7.036,8.481-6.986,2.911-6.986-20.34-6.986-20.34l1.742-5.805-11.056-66.844l9.314-7.193c-2.278-6.44-4.037-10.371-4.037-10.371s-27.071,1.622-15.16,15.674c11.91,14.051,15.696,66.492,15.696,66.492-9.197,5.387-3.786,17.816-3.786,17.816Z" fill="#ff9b24"/><path d="M517.5,607c64.893,0,117.5-13.208,117.5-29.5s-52.607-29.5-117.5-29.5-117.5,13.208-117.5,29.5s52.607,29.5,117.5,29.5Z" fill="#e6e6e6"/><path d="M460.691,493.151c0,0,8.175,50.635,26.167,76.513c0,0-29.752-11.559-31.377.803c0,0,7.673,7.059,19.935,9.317s21.258-2.258,21.258-2.258l-7.354-85.513-28.629,1.138Z" fill="#fad8b0"/><path d="M488.834,579.868c4.858-.837,7.84-2.325,7.84-2.325L489.32,492.03l-28.612,1.121c0,0,.402,2.459,1.206,6.574c4.389,1.489,16.434,5.152,22.917,2.927l8.275,63.097-5.009,1.255c0,0-2.379-12.278-9.331-11.843c2.446,5.286,5.143,10.237,8.108,14.519c0,0-5.059-1.973-11.123-3.412c2.278,5.721,7.254,11.86,13.083,13.6Z" fill="#ff9b24"/><path d="M454.326,568.442l-2.027,4.366c0,0,12.798,10.756,23.905,11.091c11.106.334,22.548-5.035,22.548-5.035l-1.676-3.363-42.75-7.059Z" fill="#ffc23e"/><path d="M496.674,577.542l-.502-5.854-9.75-2.677c.151.218.285.452.436.652c0,0-29.752-11.558-31.377.803c0,0,7.673,7.06,19.935,9.318s21.258-2.242,21.258-2.242Z" fill="#1b1b1b"/><path d="M483.91,569.998c0,0-9.817-14.72-1.96-10.304c7.856,4.416,4.908,9.953,4.908,9.953l-2.948.351Z" fill="#424242"/><path d="M476.79,580.002c-.151-5.638-2.764-10.74-5.981-14.738-7.32-1.154-14.54-.719-15.328,5.203c0,0,7.673,7.059,19.935,9.317.469.084.921.151,1.374.218Z" fill="#424242"/><path d="M489.271,579.784c4.606-.853,7.404-2.242,7.404-2.242l-.285-3.362c-3.484.519-6.265,2.727-7.119,5.604Z" fill="#424242"/><path d="M475.416,567.021c.117.133.218.267.318.401-.067-.084-.05-.067.034.05.05.067.1.134.151.201.201.284.402.569.586.853.368.586.72,1.171,1.022,1.79.335.686.485,1.02.737,1.723.234.652.419,1.305.586,1.974.151.635.921,1.087,1.541.87.67-.218,1.039-.853.871-1.539-.703-2.995-2.127-5.738-4.07-8.097-.419-.501-1.341-.468-1.776,0-.503.536-.452,1.238,0,1.774Z" fill="#ffc23e"/><path d="M479.219,566.686c1.458,2.074,2.731,4.266,3.82,6.541.285.602,1.189.803,1.725.451.62-.401.754-1.087.452-1.723-1.072-2.291-2.362-4.483-3.819-6.54-.385-.536-1.122-.837-1.725-.452-.536.351-.855,1.154-.453,1.723Z" transform="translate(0 0.000001)" fill="#ffc23e"/><path d="M565.324,487.179c0,0-2.145,55.269-16.819,83.154c0,0,28.109-15.122,31.242-3.028c0,0-6.751,7.946-18.645,11.676s-21.375.368-21.375.368l-3.183-85.763l28.78-6.407Z" fill="#fad8b0"/><path d="M547.785,580.687c-4.925-.234-8.075-1.338-8.075-1.338l-3.183-85.763l28.344-6.407c0,0,.101,6.507-.201,10.689-4.171,2.008-15.679,7.11-22.38,5.704l-.469,63.633l5.126.635c0,0,.854-12.478,7.806-12.897-1.775,5.537-3.853,10.79-6.265,15.407c0,0,4.791-2.576,10.621-4.751-1.575,5.955-5.746,12.663-11.324,15.088Z" fill="#ff9b24"/><path d="M580.635,565.147l2.546,4.099c0,0-11.374,12.244-22.363,13.934-10.99,1.689-23.001-2.242-23.001-2.242l1.257-3.546l41.561-12.245Z" fill="#ffc23e"/><path d="M539.728,579.349l-.218-5.871l9.347-3.848c-.117.235-.234.469-.352.703c0,0,28.11-15.122,31.243-3.028c0,0-6.751,7.946-18.645,11.676s-21.375.368-21.375.368Z" fill="#1b1b1b"/><path d="M551.471,570.316c0,0,7.94-15.807.686-10.455-7.253,5.337-3.652,10.489-3.652,10.489l2.966-.034Z" fill="#424242"/><path d="M559.746,579.349c-.536-5.604,1.424-11.007,4.138-15.356c7.119-2.041,14.339-2.492,15.847,3.296c0,0-6.751,7.945-18.645,11.675-.436.151-.888.268-1.34.385Z" fill="#424242"/><path d="M547.349,580.671c-4.674-.285-7.622-1.322-7.622-1.322l-.118-3.379c3.502.084,6.517,1.957,7.74,4.701Z" fill="#424242"/><path d="M557.451,564.913c-1.658,2.593-2.63,5.537-2.965,8.581-.067.653.636,1.289,1.256,1.255.737-.033,1.173-.552,1.257-1.255.284-2.492,1.206-5.085,2.63-7.326.352-.552.134-1.405-.453-1.723-.619-.318-1.34-.134-1.725.468Z" fill="#ffc23e"/><path d="M553.481,565.315c-1.24,2.325-2.278,4.767-3.116,7.26-.201.618.234,1.405.871,1.538.687.151,1.323-.2,1.541-.869.788-2.409,1.642-4.4,2.848-6.658.301-.585.167-1.388-.452-1.723-.57-.301-1.374-.167-1.692.452Z" fill="#ffc23e"/><path d="M455.766,445.092l-6.08,47.072c0,0,27.372,9.869,45.615,4.55l.754-12.897c0,0,23.084.351,32.967-.418l3.15,13.85c0,0,25.462.987,41.427-13.432l-12.162-44.78-105.671,6.055Z" fill="#e7395b"/><path d="M452.551,469.866c2.982-.368,29.969-4.215,29.232-23.151-.034-1.054-.201-2.091-.453-3.095l-25.58,1.472-3.199,24.774Z" fill="#ff577b"/><path d="M451.813,475.453c0,0,.922-.134,2.463-.435" fill="none" stroke="#ff577b" stroke-miterlimit="10"/><path d="M459.017,473.881c9.213-2.526,24.34-8.565,27.456-21.496" fill="none" stroke="#ff577b" stroke-miterlimit="10" stroke-dasharray="2.91,2.91"/><path d="M486.892,449.96c.1-.803.15-1.639.15-2.509" fill="none" stroke="#ff577b" stroke-miterlimit="10"/><path d="M568.792,465.115c-2.999.117-30.271.619-32.549-18.2-.134-1.053-.134-2.091-.051-3.128l25.48-2.626l7.12,23.954Z" fill="#ff577b"/><path d="M570.416,470.502c0,0-.938.016-2.513-.051" fill="none" stroke="#ff577b" stroke-miterlimit="10"/><path d="M563.045,470.1c-9.498-1.02-25.395-4.583-30.538-16.845" fill="none" stroke="#ff577b" stroke-miterlimit="10" stroke-dasharray="2.91,2.91"/><path d="M531.72,450.93c-.218-.786-.402-1.606-.536-2.459" fill="none" stroke="#ff577b" stroke-miterlimit="10"/><path d="M508.867,468.092l-1.659.231.696,4.986l1.659-.23-.696-4.987Z" fill="#ff577b"/><path d="M510.269,478.049l-1.659.235.711,4.985l1.658-.236-.71-4.984Z" fill="#ff577b"/><path d="M506.893,457.119l-.955.653v.435c0,.167.001.552.62,5.118l1.659-.217c-.369-2.71-.503-3.931-.57-4.483l.184-.134-.938-1.372Z" fill="#ff577b"/><path d="M515.14,451.426l-4.141,2.843.949,1.378l4.141-2.843-.949-1.378Z" fill="#ff577b"/><path d="M515.206,456.263l-.083,5.018l1.675.027.083-5.018-1.675-.027Z" fill="#ff577b"/><path d="M515.014,466.308l-.078,5.018l1.675.026.078-5.018-1.675-.026Z" fill="#ff577b"/><path d="M514.85,476.344l-.079,5.018l1.675.027.079-5.018-1.675-.027Z" fill="#ff577b"/><path d="M450.825,483.85l-3.585.318-.318,11.358c0,0,33.168,11.041,49.099,4.216l.972-9.1-1.943-.653c0,.034-25.697,3.597-44.225-6.139Z" fill="#ff577b"/><path d="M530.028,487.497l-3.216,1.589l3.769,10.723c0,0,34.927-1.556,47.357-13.617l-2.345-8.832-2.061.084c.017,0-22.698,12.512-43.504,10.053Z" fill="#ff577b"/><path d="M517.698,455.664c-24.407,3.864-41.611-1.171-51.83-6.122l-10.118.585-.436,3.363c44.125,24.355,88.232,7.126,107.798-3.195l-1.574-5.805c-6.098,2.844-18.695,7.193-43.84,11.174Z" opacity="0.2" fill="#313f49"/><path d="M437.507,366.907c0,0,23.57-39.478,68.414-38.708c44.845.752,69.939,46.302,69.939,46.302L556.864,388.92l16.718,50.1c0,0-66.136,47.072-128.47,3.044l17.489-53.144-25.094-22.013Z" fill="#424242"/><path d="M487.36,146.067c0,0-40.824,26.413-66.153,57.242-.653-4.985-3.417-15.958-14.775-7.929-11.475,8.13-1.558,18.15,4.724,21.847-4.456,7.226-9.682,14.436-8.962,21.612c3.803,38.206,48.564,67.078,90.293,69.905.452,4.416-.436,19.304.134,31.632c6.834,5.052,15.679,4.4,24.089,1.372.921-10.404-.453-22.699-1.24-29.725c0,0,88.014-5.821,94.648-43.358s-98.417-121.494-122.758-122.598Z" fill="#fad8b0"/><path d="M445.883,223.249c7.237,5.286,10.152,13.583,6.533,18.517-3.618,4.935-12.413,4.634-19.649-.652-7.237-5.286-10.152-13.583-6.534-18.518c3.635-4.934,12.43-4.65,19.65.653Z" opacity="0.34" fill="#ff9b24"/><path d="M411.173,217.227c-.234.384-.469.752-.703,1.137c4.807,2.76,9.649,4.55,11.525,4.701c5.612.468,4.221-6.073,1.876-9.351-2.345-3.279-7.488-1.405-14.976-6.541-7.488-5.135-1.508-12.278-2.412-11.793-11.526,8.113-1.608,18.133,4.69,21.847Z" fill="#ff9b24"/><path d="M404.188,228.819c4.824.953,7.371,5.604,9.548,9.568c1.692,3.078,6.416.335,4.724-2.76-2.864-5.202-6.55-10.839-12.815-12.077-3.451-.669-4.925,4.583-1.457,5.269Z" fill="#ff9b24"/><path d="M464.327,173.969c-2.211,10.839-.402,21.662,5.662,30.963c3.518,5.386,12.229.368,8.678-5.069-4.573-7.009-6.332-14.988-4.657-23.235c1.306-6.306-8.393-8.999-9.683-2.659Z" fill="#1b1b1b"/><path d="M478.666,199.863c-4.573-7.009-6.332-14.988-4.657-23.235.721-3.496-1.96-5.888-4.69-6.222-.101.267-.201.552-.268.87-2.211,10.839-.402,21.662,5.662,30.963c1.089,1.656,2.664,2.325,4.205,2.308.77-1.321.854-2.977-.252-4.684Z" fill="#424242"/><path d="M460.256,203.493c-2.63-2.275-8.443.134-13,5.37-1.826,2.108-3.166,4.349-3.953,6.423.67.402,1.256.987,1.742,1.723c1.675,1.656,3.049,3.597,4.188,5.671c2.429-.92,5.143-2.861,7.521-5.587c4.557-5.236,6.115-11.325,3.502-13.6Z" fill="#1b1b1b"/><path d="M452.115,213.714c-1.826,2.108-3.167,4.349-3.954,6.423.67.402,1.257.987,1.742,1.723.118.117.218.235.335.352c2.161-1.038,4.473-2.76,6.534-5.119c2.797-3.212,4.439-6.725,4.724-9.501-2.848.468-6.383,2.676-9.381,6.122Z" fill="#424242"/><path d="M440.924,216.089c-1.139,2.526-2.043.184-1.189,1.054.335.335.955.535,1.374.803.871.569,1.658,1.255,2.378,2.007c1.441,1.489,2.547,3.296,3.234,5.253c1.155,3.295,6.449,1.873,5.276-1.455-1.306-3.681-3.467-6.926-6.533-9.351-2.178-1.723-7.438-5.119-9.247-1.054-1.441,3.161,3.267,5.938,4.707,2.743Z" fill="#ff9b24"/><path d="M487.361,146.067c0,0-9.867,6.39-22.917,16.544c4.59,4.165,9.549,6.975,12.765,7.611c0,0-12.748,13.482,18.008,23.218c0,0,12.749,18.735,10.504,31.465s-17.255,24.723-17.255,24.723l5.998,11.977c0,0,23.251-9.735,30.002-2.994c6.751,6.742,2.999,22.466-7.505,28.471c0,0-.753,18.735,21.007,17.229c0,0,1.474,1.958,4.222,4.166c26.484-4.868,63.69-15.908,67.912-39.812c6.667-37.554-98.401-121.494-122.741-122.598Z" fill="#ff9b24"/><path d="M413.117,199.579c0,1.639-1.34,2.977-2.982,2.977s-2.982-1.338-2.982-2.977s1.34-2.978,2.982-2.978c1.659,0,2.982,1.339,2.982,2.978Z" fill="#fff"/><path d="M488.835,307.389c-.452.184-.838.502-1.189.887c1.608.184,3.233.351,4.824.451.452,4.417-.436,19.304.134,31.633c2.697,1.99,5.712,3.094,8.878,3.512.034-1.388-.351-2.96-1.34-4.516-3.333-5.32,1.994-30.629,1.994-30.629l-13.301-1.338Z" fill="#ff9b24"/><path d="M491.012,277.547c9.297,16.995,29.634,8.933,40.791-1.071c2.63-2.358-1.257-6.206-3.87-3.864-8.476,7.611-24.742,15.858-32.214,2.175-1.675-3.078-6.382-.335-4.707,2.76Z" fill="#1b1b1b"/><path d="M526.225,261.438c-.687-6.072-7.958-6.858-12.079-3.329-2.278,1.958-3.149,4.718-2.998,7.662.1,1.773.67,3.513.703,5.286.017.585.101,1.606-.201,2.124-1.424,2.426-3.936.151-5.142-.853-2.697-2.225-6.584,1.623-3.87,3.864c3.886,3.212,10.168,5.922,13.468.335c1.207-2.041,1.357-4.483,1.089-6.775-.201-1.823-.854-3.73-.452-5.554.251-1.154.503-1.689,1.541-2.291.134-.084,2.429-.954,2.479-.469.386,3.446,5.864,3.496,5.462,0Z" fill="#1b1b1b"/><path d="M505.486,138.255c0,0,3.753-45.7003-31.51-24.724-35.262,20.977-2.998,49.448,8.259,51.689c0,0-12.748,13.483,18.008,23.218c0,0,12.748,18.735,10.504,31.465-2.245,12.73-17.255,24.724-17.255,24.724l5.997,11.994c0,0,23.252-9.736,30.003-2.995c6.751,6.742,2.998,22.466-7.505,28.471c0,0-.754,18.735,21.007,17.229c0,0,11.257,14.989,30.002,8.983c0,0,34.509,8.983,39.015-23.971-.871,6.407,7.438,11.409,11.442,5.454c7.689-11.409,6.533-30.846,1.876-42.991c2.01,1.623,5.109-.133,6.416-2.358c2.496-4.316,4.975-11.074,4.054-16.126-2.865-15.707-18.377-36.751-36.536-35.362c0,0-9.749-72.666-62.266-45.701c0-.016-11.258-35.964-31.511-8.999Z" fill="#1b1b1b"/><path d="M564.754,271.442c.101-.151.151-.235.151-.235s-.05.084-.151.235Z" fill="#d8480f"/><path d="M631.745,244.409c2.496-4.315,4.975-11.073,4.054-16.125-1.089-5.939-3.971-12.63-8.125-18.585c7.94,21.345-4.892,31.298-4.892,31.298s5.73,28.119-2.077,39.561c-7.823,11.459-7.823-10.405-7.823-10.405s-.519,17.18-13.033,27.066c-12.513,9.886-16.165-6.775-16.165-6.775s-2.078,13.533-17.724,8.849c-14.725-4.416-2.663-25.409-1.189-27.868-.955,1.422-6.734,7.862-22.799-14.303-17.724-24.472,15.646-36.449,15.646-36.449s-18.762-2.075-25.027-13.533c-6.249-11.459,4.171-8.849,4.171-8.849s-12.514-10.405-28.679-20.308c-16.166-9.886-1.558-20.826-1.558-20.826s-11.995,3.647-30.237-18.216c-11.459-13.717-3.803-23.335,3.869-28.605-1.909.82-3.953,1.874-6.148,3.179-35.262,20.976-2.998,49.447,8.259,51.688c0,0-12.748,13.483,18.008,23.219c0,0,12.748,18.735,10.504,31.464-2.245,12.73-17.255,24.724-17.255,24.724l5.997,11.977c0,0,23.252-9.735,30.003-2.994s2.999,22.465-7.505,28.471c0,0-.754,18.735,21.007,17.229c0,0,11.257,14.988,30.003,8.983c0,0,34.508,8.983,39.015-23.971-.872,6.407,7.437,11.408,11.441,5.453c7.689-11.408,6.533-30.846,1.876-42.99c1.994,1.639,5.093-.117,6.383-2.359Z" fill="#424242"/><path d="M567.837,209.816c-4.808-1.388-9.415,2.058-9.298,7.16.185,7.025,7.388,10.287,12.966,12.428-.1-.836-.218-1.656-.318-2.492-6.785,3.028-4.741,11.124-.335,15.44c6.014,5.921,14.859,5.704,21.375.836c1.391-1.037.034-3.412-1.373-2.358-3.669,2.743-7.907,4.198-12.497,2.86-2.128-.636-3.987-1.74-5.579-3.279-3.4-2.927-3.467-6.657-.217-11.157c1.189-.535.636-2.124-.319-2.493-1.96-.752-4.137-1.371-5.829-2.642-1.29-.636-2.228-1.657-2.848-3.078-3.769-3.078-2.597-5.939,3.551-8.615c1.692.518,2.412-2.125.721-2.61Z" fill="#424242"/><path d="M535.606,174.654c-2.345-2.442-5.16-5.536-5.478-9.099-1.792-2.392-1.273-3.915,1.541-4.55c1.424-1.406,3.099-1.958,5.059-1.673c6.399-.686,13.016,2.091,17.238,6.758.536.602,1.809.518,2.144-.285c9.549-3.629,15.144-1.706,16.785,5.805.537,1.756,1.022,3.53,1.441,5.319.419,1.707,3.066.987,2.63-.719-1.742-6.959-4.824-16.878-13.485-17.698-3.803-.368-4.875,2.008-7.924,2.877-3.534,1.021,2.664,1.389-3.266-.669-1.525-.535-3.133-1.857-4.708-2.459-4.69-1.79-15.88-3.797-19.817.418-4.64,4.985,2.647,14.487,5.88,17.866c1.24,1.304,3.166-.636,1.96-1.891Z" fill="#424242"/><path d="M589.513,269.367c-.754,5.487-1.055,18.317,7.522,17.966c8.191-.335,11.19-12.914,12.094-19.087.252-1.723-2.378-2.459-2.63-.719-.754,5.169-2.177,11.726-6.215,15.39-3.115,2.827-6.566,1.271-7.722-2.56-.989-3.262-.871-6.942-.402-10.271.234-1.706-2.396-2.442-2.647-.719Z" fill="#424242"/><path d="M453.388,489.337c6.868,3.48,13.954,5.504,21.677,5.704c1.624.051,1.624-2.459,0-2.509-7.304-.184-13.938-2.074-20.421-5.353-1.424-.736-2.697,1.439-1.256,2.158Z" fill="#e7395b"/><path d="M451.546,494.941c2.512,1.003,5.042,2.007,7.555,3.011c1.507.602,2.161-1.824.67-2.426-2.513-1.003-5.042-2.007-7.555-3.011-1.508-.602-2.161,1.824-.67,2.426Z" fill="#e7395b"/><path d="M479.002,499.39c4.707.502,9.381.352,14.038-.501c1.591-.285,1.239-2.777-.369-2.476-4.439.803-8.878.97-13.368.502-1.591-.184-1.909,2.308-.301,2.475Z" fill="#e7395b"/><path d="M530.078,491.311c9.28,2.191,16.919-.033,26.049-2.108c1.574-.351.904-2.776-.67-2.425-8.51,1.94-15.998,4.165-24.726,2.108-1.558-.368-2.228,2.057-.653,2.425Z" fill="#e7395b"/><path d="M550.431,494.924c7.354-.803,12.782-2.877,18.813-7.159c1.306-.92.05-3.112-1.274-2.175-5.611,3.981-10.62,6.072-17.539,6.825-1.591.184-1.608,2.693,0,2.509Z" fill="#e7395b"/><path d="M482.888,480.923c21.577,4.533,42.6,3.446,64.143-.786c1.591-.318.921-2.727-.67-2.426-21.174,4.149-41.628,5.219-62.819.786-1.558-.334-2.228,2.091-.654,2.426Z" fill="#ff577b"/><path d="M556.864,388.92l18.997-14.419c0,0-1.826-3.312-5.361-8.147-5.98,5.253-14.004,13.015-14.004,13.015L539.945,354.26l25.144,80.21c0,0-9.816,9.802-49.903,16.962-40.087,7.159-58.012-13.282-58.012-13.282l25.145-88.172-19.617,28.772-22.179-16.159c-1.977,2.643-2.982,4.332-2.982,4.332l25.094,22.014-17.489,53.144c62.334,44.027,128.47-3.044,128.47-3.044L556.864,388.92Z" opacity="0.36" fill="#1b1b1b"/><path d="M529.492,253.609c1.591-7.728-1.592-11.843-12.966-20.692-3.551-2.76-5.612-6.072-6.785-9.384-4.02,11.291-16.249,21.094-16.249,21.094l5.997,11.977c0,0,23.252-9.736,30.003-2.995Z" fill="#424242"/><g opacity="0.4"><path d="M544.033,180.258c-1.609-1.756-4.54-4.031-5.261-6.256-2.462-1.823-2.077-2.961,1.173-3.429c1.474-1.572,2.982-1.79,4.54-.619c2.831.636,4.657,3.697,7.337,4.282c1.24.268,1.809.084,2.831-.15c2.329-.519,4.707-3.229,7.421-3.563c5.512-.669,7.79,5.922,9.147,9.652.536,1.505,2.965.853,2.429-.669-1.742-4.851-3.97-10.037-9.532-11.258-2.094-.452-4.372-.268-6.349.552c1.29-.535-4.858,2.626-3.367,2.241-3.049.77-4.557-1.288-6.868-2.542-3.15-1.69-9.834-4.416-12.748-.77-3.552,4.467,4.992,11.559,7.471,14.286c1.089,1.204,2.864-.569,1.776-1.757Z" fill="#fff"/><path d="M579.982,210.77c-3.016-6.173-9.968-1.004-11.258,3.697-2.479,9.066,9.063,10.705,15.211,10.287-.218-.786-.419-1.556-.636-2.342-4.356,2.158-7.807,7.561-4.691,12.128c2.68,3.948,7.873,3.546,10.973.401c1.139-1.154-.637-2.927-1.776-1.773-4.138,3.546-6.533,1.857-7.17-5.052.988-1.555,2.295-2.743,3.937-3.546c1.105-.552.586-2.425-.637-2.342-2.747.184-5.863.636-8.426-.585-2.831-.653-4.272-2.827-4.355-6.524.753-2.944,2.965-3.981,6.667-3.095.687,1.472,2.864.201,2.161-1.254Z" fill="#fff"/><path d="M491.934,144.093c-4.573-5.253-12.044-11.709-12.044-19.204c0-7.042,6.684-10.471,12.497-6.022c3.099,2.376,4.204,7.21,5.243,10.723.452,1.539,2.881.887,2.429-.669-1.608-5.403-3.618-11.509-9.163-14.068-3.853-1.79-8.125-1.021-10.856,2.258-8.325,10.003,3.971,21.696,10.119,28.772c1.055,1.204,2.831-.586,1.775-1.79Z" fill="#fff"/><path d="M511.701,143.942c4.439-3.312,10.42-1.689,12.128,3.714.486,1.539,2.915.887,2.429-.669-2.144-6.808-10.017-9.552-15.83-5.219-1.273.97-.017,3.145,1.273,2.174Z" fill="#fff"/><path d="M554.703,243.339c-2.546,8.665-1.089,18.3,5.662,24.74c5.445,5.186,13,6.039,18.511.619.972-.953-.05-2.292-1.223-2.091-5.796.954-9.381,17.046-7.89,22.031c2.446,8.146,11.19,4.884,16.233,1.539c1.34-.887.083-3.062-1.273-2.175-3.686,3.245-7.907,2.559-12.665-2.024.201-2.191.587-4.333,1.19-6.44.753-2.961,1.641-9.937,5.075-10.505-.402-.703-.82-1.406-1.223-2.091-7.186,7.059-16.165-.017-19.264-7.026-2.278-5.152-2.295-10.522-.72-15.908.452-1.556-1.96-2.208-2.413-.669Z" fill="#fff"/><path d="M592.026,264.851c.838,3.663,1.943,10.856,6.935,10.889c5.177.034,6.768-6.774,8.276-10.505.603-1.488-1.826-2.141-2.429-.669-.553,1.372-1.089,2.744-1.659,4.099-.351.853-.703,1.756-1.206,2.525-.837,1.289-1.491,1.74-3.082,1.606-1.491-.133-1.692-.368-2.329-1.656-.351-.719-.586-1.539-.837-2.308-.486-1.539-.905-3.095-1.257-4.667-.351-1.556-2.764-.887-2.412.686Z" fill="#fff"/><path d="M604.59,205.3c9.716,4.098,18.31,13.365,16.652,24.556-.235,1.573,2.194,2.258,2.429.669c1.826-12.295-6.885-22.783-17.807-27.4-1.475-.602-2.748,1.556-1.274,2.175Z" fill="#fff"/></g><path d="M403.635,230.726c-5.947,1.288-1.19,9.903-.017,12.964c1.139,2.978,6.014,1.69,4.841-1.338-.62-1.606-1.223-3.195-1.843-4.801-.251-.652-.435-1.455-.77-2.058-.067-.167-.101-.317-.134-.485c0-.568-.235-.384-.737.552c3.149-.669,1.809-5.503-1.34-4.834Z" fill="#ff9b24"/><rect width="293.157" height="291.063" rx="0" ry="0" transform="translate(39.6318 108.446)" fill="none"/><g id="eLl4oyr9g0689_to" transform="translate(186.523842,254.074532)"><path d="M259.144,271.543c9.661-40.049-15.019-80.336-55.126-89.984s-80.452,14.998-90.114,55.047s15.019,80.336,55.126,89.984s80.452-14.997,90.114-55.047Z" transform="translate(-186.523842,-254.074532)" fill="#ff9b24"/></g><g id="eLl4oyr9g0690_to" transform="translate(184.423603,166.916992)"><path d="M32.5322,227.079h363.7828l-34.861-12.111c0,0,24.257-24.222-9.096-25.727-33.353-1.506-31.828,12.111-31.828,12.111s9.096-104.4315-46.989-93.843c-56.085,10.589-33.353,60.538-33.353,60.538s-37.893-19.672-45.465,13.616c0,0-22.732-48.427-72.753-28.755-50.0207,19.672-30.3206,59.033-30.3206,59.033L32.5322,227.079Z" transform="translate(-214.423603,-166.916992)" fill="#e6e6e6"/></g><g id="eLl4oyr9g0691_to" transform="translate(90.920502,336.682877)"><path d="M181.841,366.756h-181.841L17.4219,360.7c0,0-12.12832-12.11,4.5397-12.863s15.9143,6.055,15.9143,6.055-4.5398-52.207,23.4861-46.904c28.0425,5.302,16.668,30.26,16.668,30.26s18.9463-9.836,22.732,6.808c0,0,11.358-24.205,36.368-14.369c25.011,9.836,15.161,29.508,15.161,29.508l29.55,7.561Z" transform="translate(-90.920502,-336.682877)" fill="#e6e6e6"/></g><g id="eLl4oyr9g0692_to" style="offset-path:path('M197.803032,262.536306C184.4236,262.536306,165.354951,251.300615,151.461381,231.869195C166.674796,256.008119,194.038751,262.631646,197.803032,263.687806');offset-rotate:0deg"><g transform="translate(-115.105831,-189.853088)"><g><path d="M106.258,178.218c3.283,8.129-2.58,16.811-4.272,24.673-.921,4.249-.938,8.632,1.122,12.563c2.128,4.048,6.115,6.523,10.353,7.895c4.59,1.472,9.482,1.706,14.256,2.074c6.098.485,12.212,1.188,18.142,2.727c10.47,2.727,20.354,8.531,25.094,18.651c2.262,4.818,2.781,10.204,1.206,15.306-1.608,5.219-5.059,9.686-8.593,13.75-8.292,9.535-16.819,18.819-24.642,28.772-3.367,4.283-7.136,9.267-6.835,15.022.251,4.55,3.099,8.33,7.17,10.22c8.225,3.831,16.869.753,25.446,1.807c4.339.535,9.163,2.459,9.515,7.444.369,5.085-2.68,9.903-3.166,14.921-.586,5.955,2.814,9.853,7.505,12.964c6.248,4.148,12.564,8.18,18.845,12.278c2.714,1.773,5.244-2.576,2.53-4.332-5.645-3.68-11.307-7.361-16.953-11.057-1.96-1.272-4.255-2.51-5.695-4.4-1.424-1.873-1.475-4.198-1.022-6.423.888-4.5,3.065-8.749,3.015-13.416-.033-4.332-2.245-8.23-5.964-10.455-7.772-4.65-16.835-1.706-25.245-2.308-3.501-.251-7.873-1.121-9.917-4.299-3.132-4.868,1.441-10.723,4.356-14.436c7.672-9.786,15.998-18.919,24.189-28.253c7.086-8.046,13.017-17.381,10.99-28.555-1.843-10.237-9.683-18.902-18.712-23.603-10.487-5.47-22.364-6.674-33.99-7.577-4.874-.368-10.419-.837-14.507-3.797-3.819-2.76-4.59-7.294-3.719-11.66c1.81-9.066,8.175-18.45,4.389-27.851-1.239-2.928-6.097-1.64-4.891,1.355Z" fill="#1b1b1b"/><path d="M156.982,61.9761c-6.969-39.4106-39.953-66.911-74.8305-61.223566C47.2909,6.43997,22.4144,43.425,30.7233,82.5847C40.9252,130.66,91.9513,153.694,107.514,159.666c-3.049,6.39-6.718,18.785-6.718,18.785s10.236,10.907,19.784,1.355c0,0-3.149-13.332-6.751-20.073c9.331-8.213,51.814-48.778,43.153-97.7569Z" fill="#00bbae"/><path d="M150.449,60.7051c0-12.6462-3.367-24.4895-9.247-34.7268C126.762,7.41045,104.85,-2.96075,82.1515,0.752808C47.2909,6.44024,22.4144,43.4253,30.7233,82.585c3.7692,17.715,13.0665,32.017,24.1059,43.325c7.9069,3.078,16.5006,4.801,25.4963,4.801c38.7305,0,70.1235-31.3481,70.1235-70.0059Z" opacity="0.34" fill="#fff"/><path d="M91.0466,5.93848c0,0-45.4142,8.24682-51.1936,51.12002s20.6383,66.7775,35.4972,61.8255c14.8588-4.951,15.6797-33.8065-.8209-55.2348-16.5173-21.4282,0-41.2172,16.5173-57.71072Z" opacity="0.34" fill="#fff"/><path d="M46.4529,75.4087c2.8125,0,5.0926-6.1862,5.0926-13.8172s-2.2801-13.8171-5.0926-13.8171-5.0925,6.1862-5.0925,13.8171s2.28,13.8172,5.0925,13.8172Z" fill="#fff"/><path d="M48.8657,33.071c-.9046,2.4589-.1005,5.0015,1.7925,5.6874c1.8929.6858,4.1544-.736,5.0423-3.195.9046-2.459.1005-5.0016-1.7925-5.6875-1.8762-.7025-4.1377.7361-5.0423,3.1951Z" fill="#fff"/></g><path d="M120.597,179.807c0,0-3.15-13.332-6.751-20.074c5.813-5.135,24.558-22.883,35.715-47.406-37.457,57.878-76.4389,26.129-76.4389,26.129l.2345,3.044c13.9208,9.719,27.3894,15.557,34.1734,18.15-3.049,6.39-6.717,18.785-6.717,18.785s10.235,10.906,19.784,1.372Z" fill="#00bbae"/></g></g></g><clipPath id="eLl4oyr9g06101"><rect width="636" height="607" rx="0" ry="0" fill="#fff"/></clipPath></g></svg>
